<?xml version="1.0" encoding="UTF-8" standalone="no"?> <svg id="Layer_1" data-name="Layer 1" xmlns="http://www.w3.org/2000/svg" viewBox="0 0 64 64"><defs><style>.cls-1{fill:#a8dadc;}.cls-2{fill:#a5a58d;}.cls-3{fill:#e9c46a;}.cls-4{fill:#e76f51;}.cls-5{fill:#cb997e;}</style></defs><path class="cls-1" d="M55,23,43.15,34.8a2,2,0,0,1-2.82,0h0a2,2,0,0,1,0-2.83l10.6-10.61a2,2,0,0,0,0-2.83h0a2,2,0,0,0-2.83,0l-2.83,2.83a2,2,0,0,1-2.82,0h0a2,2,0,0,1,0-2.83l7.77-7.78a2,2,0,0,0,0-2.83h0a2,2,0,0,0-2.83,0L36.09,19.23a2,2,0,0,1-2.83,0h0a2,2,0,0,1,0-2.83L40.68,9a3.49,3.49,0,0,0,0-4.95h0a3.49,3.49,0,0,0-5,0L8.14,31.65c-6.73,6.74-6.94,18-.08,24.6A17,17,0,0,0,31.85,56L60,28A3.51,3.51,0,0,0,60,23h0A3.51,3.51,0,0,0,55,23Z"/><path class="cls-2" d="M19.78,35a3.48,3.48,0,0,1-6,2.27,3.27,3.27,0,0,1-.65-1A10.23,10.23,0,0,0,11,38a10.54,10.54,0,0,0-2,12,3.57,3.57,0,0,1,4.86.07,3.51,3.51,0,0,1,.07,4.87,10.48,10.48,0,0,0,11.94-2h0a10.42,10.42,0,0,0,2.46-3.93h0a3.46,3.46,0,0,1-2.45-1,3.51,3.51,0,0,1,0-5,3.46,3.46,0,0,1,2.46-1A10.42,10.42,0,0,0,19.78,35Z"/><path class="cls-3" d="M54.07,58.09c2.65.59,3.25,1.19,3.84,3.84a.09.09,0,0,0,.18,0c.59-2.65,1.19-3.25,3.84-3.84a.09.09,0,0,0,0-.18c-2.65-.59-3.25-1.19-3.84-3.84a.09.09,0,0,0-.18,0c-.59,2.65-1.19,3.25-3.84,3.84A.09.09,0,0,0,54.07,58.09Z"/><path class="cls-3" d="M2.07,6.09c2.65.59,3.25,1.19,3.84,3.84a.09.09,0,0,0,.18,0c.59-2.65,1.19-3.25,3.84-3.84a.09.09,0,0,0,0-.18C7.28,5.32,6.68,4.72,6.09,2.07a.09.09,0,0,0-.18,0C5.32,4.72,4.72,5.32,2.07,5.91A.09.09,0,0,0,2.07,6.09Z"/><path class="cls-3" d="M54.07,6.09c2.65.59,3.25,1.19,3.84,3.84a.09.09,0,0,0,.18,0c.59-2.65,1.19-3.25,3.84-3.84a.09.09,0,0,0,0-.18c-2.65-.59-3.25-1.19-3.84-3.84a.09.09,0,0,0-.18,0c-.59,2.65-1.19,3.25-3.84,3.84A.09.09,0,0,0,54.07,6.09Z"/><circle class="cls-4" cx="18.42" cy="45.41" r="2"/><rect class="cls-3" x="19.54" y="50.77" width="2" height="2" transform="translate(-30.6 29.71) rotate(-45.02)"/><rect class="cls-3" x="11.06" y="42.29" width="2" height="2" transform="translate(-27.08 21.22) rotate(-45.02)"/><rect class="cls-3" x="20.96" y="39.46" width="2" height="2" transform="translate(-22.18 27.39) rotate(-45.02)"/><rect class="cls-2" x="29.43" y="21.06" width="2" height="2" transform="translate(-6.69 28) rotate(-45.02)"/><rect class="cls-2" x="26.61" y="23.89" width="2" height="2" transform="translate(-9.52 26.83) rotate(-45.02)"/><rect class="cls-2" x="23.78" y="26.72" width="2" height="2" transform="translate(-12.35 25.66) rotate(-45.02)"/><rect class="cls-2" x="38.62" y="23.19" width="2" height="2" transform="translate(-5.49 35.12) rotate(-45.02)"/><rect class="cls-2" x="35.79" y="26.02" width="2" height="2" transform="translate(-8.32 33.95) rotate(-45.02)"/><rect class="cls-2" x="32.97" y="28.84" width="2" height="2" transform="translate(-11.15 32.78) rotate(-45.02)"/><rect class="cls-2" x="36.5" y="36.63" width="2" height="2" transform="translate(-15.62 37.56) rotate(-45.02)"/><rect class="cls-2" x="33.67" y="39.46" width="2" height="2" transform="translate(-18.45 36.39) rotate(-45.02)"/><rect class="cls-5" x="42" y="57" width="2" height="2"/><rect class="cls-5" x="59" y="43" width="2" height="2"/><rect class="cls-5" x="6" y="20" width="2" height="2"/><rect class="cls-5" x="23" y="6" width="2" height="2"/><rect class="cls-5" x="45.34" y="50" width="11.31" height="2" transform="translate(-21.12 51) rotate(-45)"/><rect class="cls-5" x="9.34" y="13" width="11.31" height="2" transform="translate(-5.51 14.71) rotate(-45)"/><path class="cls-5" d="M26.55,43.64a2.52,2.52,0,0,0,0,3.54,2.44,2.44,0,0,0,2.06.69,10.8,10.8,0,0,0,0-4.93A2.45,2.45,0,0,0,26.55,43.64Z"/><path class="cls-5" d="M18.07,36.57a2.46,2.46,0,0,0,.71-1.65l-.36,0a10.43,10.43,0,0,0-4.36,1,2.41,2.41,0,0,0,.48.71A2.56,2.56,0,0,0,18.07,36.57Z"/><path class="cls-5" d="M9.59,50.71l-.12.15A9.92,9.92,0,0,0,13,54.37a.88.88,0,0,0,.15-.12,2.5,2.5,0,0,0,0-3.54A2.56,2.56,0,0,0,9.59,50.71Z"/></svg>